g LivingRoom_FanIllum_1
v -0.1157391 -0.1077459 0.1057303
v -0.001838379 -0.1077459 -0.001229706
v -0.1531786 -0.1077459 0.03762787
v -0.05012222 -0.1077459 0.1473718
v -0.1531786 -0.1077459 -0.04008697
v -0.01164925 -0.1077459 0.154711
v -0.1157391 -0.1077459 -0.1081894
v 0.0646891 -0.1077459 0.1401485
v -0.05012222 -0.1077459 -0.1498309
v 0.1245697 -0.1077459 0.09061142
v 0.0274398 -0.1077459 -0.1547107
v 0.1531786 -0.1077459 0.01835388
v 0.09775856 -0.1077459 -0.1216217
v 0.1434383 -0.1077459 -0.05874893

vn 0 -1 -1.38855E-06
vn 0 -1 -7.510386E-07
vn 0 -1 0
vn 0 -1 -7.160943E-07
vn 0 -1 0
vn 0 -1 6.724551E-07
vn 0 -1 0
vn 0 -1 0
vn 0 -1 1.388542E-06
vn 0 -1 -5.554198E-06
vn 0 -1 1.388542E-06
vn 0 -1 -5.554198E-06
vn 0 -1 0
vn 0 -1 0

vt 0.7784255 0.9593017
vt 0.7749348 0.9625796
vt 0.7795728 0.9613888
vt 0.7764145 0.9580256
vt 0.7795728 0.9637705
vt 0.7752355 0.9578006
vt 0.7784255 0.9658575
vt 0.7728961 0.9582469
vt 0.7764145 0.9671338
vt 0.7710608 0.959765
vt 0.7740376 0.9672833
vt 0.7701842 0.9619794
vt 0.7718825 0.9662692
vt 0.7704827 0.9643424

usemtl Illumination
usemap Illumination
f 2/2/2 1/1/1 3/3/3
f 2/2/2 4/4/4 1/1/1
f 2/2/2 3/3/3 5/5/5
f 2/2/2 6/6/6 4/4/4
f 2/2/2 5/5/5 7/7/7
f 2/2/2 8/8/8 6/6/6
f 2/2/2 7/7/7 9/9/9
f 2/2/2 10/10/10 8/8/8
f 2/2/2 9/9/9 11/11/11
f 2/2/2 12/12/12 10/10/10
f 2/2/2 11/11/11 13/13/13
f 2/2/2 14/14/14 12/12/12
f 2/2/2 13/13/13 14/14/14
