g GuestBedroom_BathroomDrawers_Instance
v -0.5949912 0.609 0.04451203
v -0.5949912 0.02740002 0.8445802
v -0.5949912 0.02740002 0.04451203
v -0.5949912 0.609 0.8445802
v -0.5949912 0.609 0.8445802
v 0.6229908 0.02740002 0.8445802
v -0.5949912 0.02740002 0.8445802
v 0.6229908 0.609 0.8445802
v 0.6229908 0.609 0.8445802
v 0.6229908 0.02740002 0.04451203
v 0.6229908 0.02740002 0.8445802
v 0.6229908 0.609 0.04451203
v -0.580092 0.609 0.06329775
v -0.5949912 0.609 0.8445802
v -0.5949912 0.609 0.04451203
v -0.580092 0.609 0.826581
v -0.580092 0.609 0.826581
v 0.6229908 0.609 0.8445802
v -0.5949912 0.609 0.8445802
v 0.6074409 0.609 0.826581
v 0.6074409 0.609 0.826581
v 0.6229908 0.609 0.04451203
v 0.6229908 0.609 0.8445802
v 0.6074409 0.609 0.06329775
v -0.580092 0.597368 0.8663449
v 0.6074409 0.599695 0.8445802
v 0.6074409 0.597368 0.8663449
v -0.580092 0.599695 0.8445787
v -0.580092 0.3298321 0.8663449
v -0.580092 0.599695 0.8445787
v -0.580092 0.597368 0.8663449
v -0.580092 0.320164 0.8445787
v 0.6074409 0.3298321 0.8663449
v -0.580092 0.320164 0.8445787
v -0.580092 0.3298321 0.8663449
v 0.6074409 0.320164 0.8445802
v 0.6074409 0.597368 0.8663449
v 0.6074409 0.320164 0.8445802
v 0.6074409 0.3298321 0.8663449
v 0.6074409 0.599695 0.8445802
v -0.580092 0.597368 0.8663449
v 0.6074409 0.3298321 0.8663449
v -0.580092 0.3298321 0.8663449
v 0.6074409 0.597368 0.8663449
v 0.6074409 0.03903103 0.8663449
v -0.580092 0.03670502 0.8445787
v -0.580092 0.03903103 0.8663449
v 0.6074409 0.03670502 0.8445802
v -0.580092 0.03903103 0.8663449
v -0.580092 0.3162351 0.8445787
v -0.580092 0.306567 0.8663449
v -0.580092 0.03670502 0.8445787
v -0.580092 0.306567 0.8663449
v 0.6074409 0.3162351 0.8445802
v 0.6074409 0.306567 0.8663449
v -0.580092 0.3162351 0.8445787
v 0.6074409 0.306567 0.8663449
v 0.6074409 0.03670502 0.8445802
v 0.6074409 0.03903103 0.8663449
v 0.6074409 0.3162351 0.8445802
v 0.6074409 0.03903103 0.8663449
v -0.580092 0.306567 0.8663449
v 0.6074409 0.306567 0.8663449
v -0.580092 0.03903103 0.8663449

vn -1 0 0
vn -1 0 0
vn -1 0 0
vn -1 0 0
vn 0 0 1
vn 0 0 1
vn 0 0 1
vn 0 0 1
vn 1 0 0
vn 1 0 0
vn 1 0 0
vn 1 0 0
vn 0 1 0
vn 0 1 0
vn 0 1 0
vn 0 1 0
vn 0 1 0
vn 0 1 0
vn 0 1 0
vn 0 1 0
vn 0 1 0
vn 0 1 0
vn 0 1 0
vn 0 1 0
vn 0 0.9943333 0.1063085
vn 0 0.9943333 0.1063085
vn 0 0.9943329 0.1063108
vn 0 0.9943335 0.1063062
vn -1 0 0
vn -1 0 0
vn -1 0 0
vn -1 0 0
vn 0 -0.9139023 0.4059341
vn 0 -0.9139023 0.4059341
vn 0 -0.9139057 0.4059267
vn 0 -0.9138991 0.4059415
vn 1 0 0
vn 1 0 0
vn 1 0 0
vn 1 0 0
vn 0 0 1
vn 0 0 1
vn 0 0 1
vn 0 0 1
vn 0 -0.9943368 0.1062751
vn 0 -0.9943368 0.1062751
vn 0 -0.9943369 0.1062739
vn 0 -0.9943367 0.1062762
vn -1 0 0
vn -1 0 0
vn -1 0 0
vn -1 0 0
vn 0 0.9139061 0.4059257
vn 0 0.9139061 0.4059257
vn 0 0.9139027 0.4059331
vn 0 0.9139094 0.4059183
vn 1 0 0
vn 1 0 0
vn 1 0 0
vn 1 0 0
vn 0 0 1
vn 0 0 1
vn 0 0 1
vn 0 0 1

vt 0.9308277 0.1019123
vt 0.7818972 0.2101755
vt 0.9308273 0.2101758
vt 0.7818972 0.101912
vt 0.6731849 0.05978671
vt 0.7778727 0.3246349
vt 0.7778727 0.05978671
vt 0.673185 0.3246349
vt 0.9291515 0.2168301
vt 0.7831555 0.3229606
vt 0.9291521 0.3229606
vt 0.783156 0.2168302
vt 0.9273307 0.09856178
vt 0.7818972 0.101912
vt 0.9308277 0.1019123
vt 0.7852478 0.09856154
vt 0.6699451 0.06302653
vt 0.673185 0.3246349
vt 0.6731849 0.05978671
vt 0.6699451 0.3212536
vt 0.925867 0.2134022
vt 0.783156 0.2168302
vt 0.9291515 0.2168301
vt 0.7865841 0.2134022
vt 0.6585674 0.2221556
vt 0.3286698 0.2171505
vt 0.3286761 0.2221558
vt 0.6585737 0.2171505
vt 0.6585643 0.3194574
vt 0.663569 0.2213097
vt 0.6585674 0.2221556
vt 0.6635689 0.3229731
vt 0.3286788 0.3194574
vt 0.658618 0.3229735
vt 0.6585643 0.3194574
vt 0.3287328 0.3229735
vt 0.3286761 0.2221558
vt 0.323674 0.3229732
vt 0.3286788 0.3194574
vt 0.3236752 0.2213092
vt 0.6585674 0.2221556
vt 0.3286788 0.3194574
vt 0.6585643 0.3194574
vt 0.3286761 0.2221558
vt 0.3286761 0.2066216
vt 0.6585736 0.2116264
vt 0.6585678 0.2066218
vt 0.3286698 0.2116265
vt 0.6585678 0.2066218
vt 0.6635684 0.1058036
vt 0.658564 0.1093197
vt 0.6635697 0.2074676
vt 0.658564 0.1093197
vt 0.3287328 0.1058035
vt 0.3286787 0.1093196
vt 0.658618 0.1058036
vt 0.3286787 0.1093196
vt 0.323675 0.207468
vt 0.3286761 0.2066216
vt 0.3236737 0.1058043
vt 0.3286761 0.2066216
vt 0.658564 0.1093197
vt 0.3286787 0.1093196
vt 0.6585678 0.2066218

usemtl GuestBedroom_Wardrobe
usemap GuestBedroom_Wardrobe
f 2/2/2 1/1/1 3/3/3
f 2/2/2 4/4/4 1/1/1
f 6/6/6 5/5/5 7/7/7
f 6/6/6 8/8/8 5/5/5
f 10/10/10 9/9/9 11/11/11
f 10/10/10 12/12/12 9/9/9
f 14/14/14 13/13/13 15/15/15
f 14/14/14 16/16/16 13/13/13
f 18/18/18 17/17/17 19/19/19
f 18/18/18 20/20/20 17/17/17
f 22/22/22 21/21/21 23/23/23
f 22/22/22 24/24/24 21/21/21
f 26/26/26 25/25/25 27/27/27
f 26/26/26 28/28/28 25/25/25
f 30/30/30 29/29/29 31/31/31
f 30/30/30 32/32/32 29/29/29
f 34/34/34 33/33/33 35/35/35
f 34/34/34 36/36/36 33/33/33
f 38/38/38 37/37/37 39/39/39
f 38/38/38 40/40/40 37/37/37
f 42/42/42 41/41/41 43/43/43
f 42/42/42 44/44/44 41/41/41
f 46/46/46 45/45/45 47/47/47
f 46/46/46 48/48/48 45/45/45
f 50/50/50 49/49/49 51/51/51
f 50/50/50 52/52/52 49/49/49
f 54/54/54 53/53/53 55/55/55
f 54/54/54 56/56/56 53/53/53
f 58/58/58 57/57/57 59/59/59
f 58/58/58 60/60/60 57/57/57
f 62/62/62 61/61/61 63/63/63
f 62/62/62 64/64/64 61/61/61
