g Prop_SC_Table001
v 0.4089005 0.6199977 0.3156577
v 0.4089006 0.6199977 -0.3156527
v 0.4405513 0.6053087 0.3156577
v 0.4405514 0.6053087 -0.3156527
v 0.4597858 0.5906197 -0.3156527
v 0.4597857 0.5906196 0.3156577
v 0.4731712 0.5612583 0.3156577
v 0.4731713 0.5612584 -0.3156527
v 0.4731713 0.4954168 -0.3156527
v 0.4731712 0.4954167 0.3156577
v 0.4731712 0.3251979 0.3156577
v 0.4731713 0.325198 -0.3156527
v 0.4731713 0.1402567 -0.3156528
v 0.4731712 0.1402566 0.3156577
v 0.4731713 0.05558174 -0.3156528
v 0.4731712 0.05558167 0.3156576
v 0.4597856 0.02678851 0.3156576
v 0.4597857 0.02678858 -0.3156528
v 0.4405513 0.01240038 -0.3156528
v 0.4405512 0.0124003 0.3156576
v 0.4089006 -0.001987826 -0.3156528
v 0.4089005 -0.001987902 0.3156576
v 0.3911701 0.1270884 -0.3156528
v 0.408934 0.1427801 -0.3156528
v 0.39117 0.1270883 0.3156577
v 0.4089339 0.14278 0.3156577
v 0.4089339 0.3251979 0.3156577
v 0.408934 0.325198 -0.3156527
v 0.4089339 0.49413 0.3156577
v 0.408934 0.49413 -0.3156527
v 0.3943453 0.5203999 -0.3156527
v 0.3943452 0.5203997 0.3156577
v -0.3980264 0.1270884 0.3156576
v -0.3980263 0.1270885 -0.3156529
v -0.3692333 0.1198024 0.3156576
v -0.3692332 0.1198025 -0.3156529
v -2.407062E-06 0.1198023 0.3156576
v -2.331803E-06 0.1198024 -0.3156528
v 0.3669224 0.1198024 -0.3156528
v 0.3669223 0.1198023 0.3156577
v 0.3911701 0.1270884 -0.3156528
v 0.39117 0.1270883 0.3156577
v -0.3980263 0.1270885 -0.3156529
v -0.3980264 0.1270884 0.3156576
v -0.4089387 0.1427801 0.3156576
v -0.4089386 0.1427802 -0.3156529
v -0.4089387 0.325198 0.3156576
v -0.4089386 0.3251981 -0.3156528
v -0.4089387 0.4941301 0.3156576
v -0.4089386 0.4941302 -0.3156528
v -0.3965892 0.5188123 0.3156576
v -0.3965891 0.5188124 -0.3156528
v 0.4089006 0.6199977 -0.3156527
v 0.4089005 0.6199977 0.3156577
v 0.3669223 0.6199977 0.3156577
v 0.3669224 0.6199978 -0.3156527
v -2.272175E-06 0.6199978 -0.3156527
v -2.347434E-06 0.6199977 0.3156576
v -0.3692164 0.6199979 -0.3156528
v -0.3692165 0.6199978 0.3156576
v -0.4089052 0.6199978 0.3156576
v -0.4089051 0.6199979 -0.3156528
v -0.3692164 -0.001987734 -0.3156529
v -0.4089052 -0.001987729 -0.3156529
v -0.4089053 -0.001987804 0.3156575
v -0.3692165 -0.001987809 0.3156575
v -2.42158E-06 -0.001987853 0.3156575
v -2.346321E-06 -0.001987778 -0.3156528
v 0.3669224 -0.001987821 -0.3156528
v 0.3669223 -0.001987897 0.3156576
v 0.4089005 -0.001987902 0.3156576
v 0.4089006 -0.001987826 -0.3156528
v -0.4089052 -0.001987729 -0.3156529
v -0.4405392 0.01240048 -0.3156529
v -0.4089053 -0.001987804 0.3156575
v -0.4405393 0.01240041 0.3156575
v -0.4597904 0.02678869 -0.3156529
v -0.4597905 0.02678862 0.3156575
v -0.4731759 0.05558186 -0.3156529
v -0.473176 0.05558178 0.3156575
v -0.4731759 0.1402568 -0.3156529
v -0.473176 0.1402567 0.3156576
v -0.4731759 0.3251981 -0.3156528
v -0.473176 0.325198 0.3156576
v -0.473176 0.4954168 0.3156576
v -0.4731759 0.4954169 -0.3156528
v -0.473176 0.5612584 0.3156576
v -0.4731759 0.5612585 -0.3156528
v -0.4597904 0.5906197 0.3156576
v -0.4597903 0.5906198 -0.3156528
v -0.4405393 0.6053088 0.3156576
v -0.4405392 0.6053088 -0.3156528
v -0.4089052 0.6199978 0.3156576
v -0.4089051 0.6199979 -0.3156528
v 0.3943453 0.5203999 -0.3156527
v 0.3669224 0.5294071 -0.3156527
v 0.3943452 0.5203997 0.3156577
v 0.3669223 0.529407 0.3156577
v -2.358233E-06 0.5294071 0.3156576
v -2.282974E-06 0.5294072 -0.3156527
v -0.3692331 0.5294073 -0.3156528
v -0.3692332 0.5294071 0.3156576
v -0.3965891 0.5188124 -0.3156528
v -0.3965892 0.5188123 0.3156576
v -0.3738287 0.5721708 0.3156576
v -0.473176 0.5612584 0.3156576
v -0.4597904 0.5906197 0.3156576
v -0.4405393 0.6053088 0.3156576
v -0.4089052 0.6199978 0.3156576
v -0.3692165 0.6199978 0.3156576
v -2.353135E-06 0.5721707 0.3156576
v -2.347434E-06 0.6199977 0.3156576
v 0.3669223 0.6199977 0.3156577
v 0.3711168 0.5721707 0.3156577
v 0.4089005 0.6199977 0.3156577
v 0.4405513 0.6053087 0.3156577
v 0.4597857 0.5906196 0.3156577
v 0.4731712 0.5612583 0.3156577
v -0.3965892 0.5188123 0.3156576
v -0.473176 0.4954168 0.3156576
v -0.3692332 0.5294071 0.3156576
v -0.4089387 0.4941301 0.3156576
v -2.358233E-06 0.5294071 0.3156576
v 0.3669223 0.529407 0.3156577
v -0.473176 0.325198 0.3156576
v -0.4089387 0.325198 0.3156576
v -0.4089387 0.1427801 0.3156576
v -0.473176 0.1402567 0.3156576
v 0.3943452 0.5203997 0.3156577
v 0.4731712 0.4954167 0.3156577
v 0.4089339 0.49413 0.3156577
v -0.3980264 0.1270884 0.3156576
v 0.4731712 0.3251979 0.3156577
v 0.4089339 0.3251979 0.3156577
v 0.4089339 0.14278 0.3156577
v 0.4731712 0.1402566 0.3156577
v 0.39117 0.1270883 0.3156577
v -0.473176 0.05558178 0.3156575
v -0.3738288 0.05558177 0.3156575
v -0.4597905 0.02678862 0.3156575
v -0.4405393 0.01240041 0.3156575
v -0.4089053 -0.001987804 0.3156575
v 0.4731712 0.05558167 0.3156576
v 0.3711168 0.05558168 0.3156576
v 0.4597856 0.02678851 0.3156576
v 0.4405512 0.0124003 0.3156576
v 0.4089005 -0.001987902 0.3156576
v -0.3692333 0.1198024 0.3156576
v -2.414717E-06 0.05558173 0.3156575
v -0.3692165 -0.001987809 0.3156575
v -2.407062E-06 0.1198023 0.3156576
v -2.42158E-06 -0.001987853 0.3156575
v 0.3669223 0.1198023 0.3156577
v 0.3669223 -0.001987897 0.3156576
v -2.277877E-06 0.5721708 -0.3156527
v -2.282974E-06 0.5294072 -0.3156527
v 0.3669224 0.5294071 -0.3156527
v 0.3711169 0.5721707 -0.3156527
v -0.3692331 0.5294073 -0.3156528
v -0.3738286 0.5721709 -0.3156528
v 0.3943453 0.5203999 -0.3156527
v -0.3965891 0.5188124 -0.3156528
v 0.4731713 0.5612584 -0.3156527
v 0.4731713 0.4954168 -0.3156527
v 0.408934 0.49413 -0.3156527
v 0.4597858 0.5906197 -0.3156527
v 0.4731713 0.325198 -0.3156527
v 0.408934 0.325198 -0.3156527
v 0.408934 0.1427801 -0.3156528
v 0.4731713 0.1402567 -0.3156528
v 0.4405514 0.6053087 -0.3156527
v 0.4089006 0.6199977 -0.3156527
v 0.3669224 0.6199978 -0.3156527
v 0.3911701 0.1270884 -0.3156528
v -2.272175E-06 0.6199978 -0.3156527
v -0.3692164 0.6199979 -0.3156528
v -0.4089051 0.6199979 -0.3156528
v -0.4405392 0.6053088 -0.3156528
v -0.4597903 0.5906198 -0.3156528
v -0.4731759 0.5612585 -0.3156528
v -0.4731759 0.4954169 -0.3156528
v -0.4089386 0.4941302 -0.3156528
v -0.4731759 0.3251981 -0.3156528
v -0.4089386 0.3251981 -0.3156528
v -0.4089386 0.1427802 -0.3156529
v -0.4731759 0.1402568 -0.3156529
v -0.3980263 0.1270885 -0.3156529
v -0.4731759 0.05558186 -0.3156529
v -0.3738287 0.05558185 -0.3156529
v -0.4597904 0.02678869 -0.3156529
v -0.4405392 0.01240048 -0.3156529
v -0.4089052 -0.001987729 -0.3156529
v -0.3692332 0.1198025 -0.3156529
v -2.339458E-06 0.0555818 -0.3156528
v -0.3692164 -0.001987734 -0.3156529
v -2.331803E-06 0.1198024 -0.3156528
v -2.346321E-06 -0.001987778 -0.3156528
v 0.3669224 0.1198024 -0.3156528
v 0.3711169 0.05558176 -0.3156528
v 0.3669224 -0.001987821 -0.3156528
v 0.4089006 -0.001987826 -0.3156528
v 0.4405513 0.01240038 -0.3156528
v 0.4597857 0.02678858 -0.3156528
v 0.4731713 0.05558174 -0.3156528

vn 0.419608 0.907697 0.003921727
vn 0.419608 0.907697 0.003921727
vn 0.5137256 0.8579456 0.003921732
vn 0.5137256 0.8579456 0.003921732
vn 0.7803923 0.625278 0.003921737
vn 0.7803923 0.625278 0.003921737
vn 0.9764707 0.215615 0.003921711
vn 0.9764707 0.215615 0.003921711
vn 0.9999925 0 0.003921659
vn 0.9999925 0 0.003921659
vn 0.9999925 0 0.003921659
vn 0.9999925 0 0.003921659
vn 0.9999925 0 0.003921659
vn 0.9999925 0 0.003921659
vn 0.9764706 -0.2156151 0.00392166
vn 0.9764706 -0.2156151 0.00392166
vn 0.772549 -0.6349431 0.003921586
vn 0.772549 -0.6349431 0.003921586
vn 0.5058823 -0.8625937 0.003921526
vn 0.5058823 -0.8625937 0.003921526
vn 0.4117646 -0.9112818 0.003921509
vn 0.4117646 -0.9112818 0.003921509
vn -0.6627451 0.7488349 0.00392158
vn -0.9137256 0.4063132 0.003921509
vn -0.6627451 0.7488349 0.00392158
vn -0.9137256 0.4063132 0.003921509
vn -0.9999925 0 0.003921421
vn -0.9999925 0 0.003921421
vn -0.9686276 -0.2484863 0.003921425
vn -0.9686276 -0.2484863 0.003921425
vn -0.87451 -0.4849919 0.003921408
vn -0.87451 -0.4849919 0.003921408
vn 0.247059 0.9689925 0.003921714
vn 0.247059 0.9689925 0.003921714
vn 0.1215688 0.9925753 0.003921702
vn 0.1215688 0.9925753 0.003921702
vn -0.00392145 0.9999846 0.003921688
vn -0.00392145 0.9999846 0.003921688
vn -0.1450979 0.9894096 0.00392167
vn -0.1450979 0.9894096 0.00392167
vn -0.2862744 0.9581396 0.003921648
vn -0.2862744 0.9581396 0.003921648
vn 0.8196079 0.5729115 0.003921735
vn 0.8196079 0.5729115 0.003921735
vn 0.9529413 0.3031297 0.003921719
vn 0.9529413 0.3031297 0.003921719
vn 0.9999925 0 0.003921659
vn 0.9999925 0 0.003921659
vn 0.9764706 -0.2156151 0.00392166
vn 0.9764706 -0.2156151 0.00392166
vn 0.8980393 -0.439898 0.003921624
vn 0.8980393 -0.439898 0.003921624
vn -0.00392145 0.9999846 0.003921688
vn -0.00392145 0.9999846 0.003921688
vn -0.00392145 0.9999846 0.003921688
vn -0.00392145 0.9999846 0.003921688
vn -0.00392145 0.9999846 0.003921688
vn -0.00392145 0.9999846 0.003921688
vn -0.00392145 0.9999846 0.003921688
vn -0.00392145 0.9999846 0.003921688
vn -0.00392145 0.9999846 0.003921688
vn -0.00392145 0.9999846 0.003921688
vn -0.003921689 -0.9999846 0.003921449
vn -0.003921689 -0.9999846 0.003921449
vn -0.003921689 -0.9999846 0.003921449
vn -0.003921689 -0.9999846 0.003921449
vn -0.003921689 -0.9999846 0.003921449
vn -0.003921689 -0.9999846 0.003921449
vn -0.003921689 -0.9999846 0.003921449
vn -0.003921689 -0.9999846 0.003921449
vn -0.003921689 -0.9999846 0.003921449
vn -0.003921689 -0.9999846 0.003921449
vn -0.4117649 -0.9112817 0.003921412
vn -0.5058825 -0.8625935 0.003921404
vn -0.4117649 -0.9112817 0.003921412
vn -0.5058825 -0.8625935 0.003921404
vn -0.7725493 -0.6349429 0.003921401
vn -0.7725493 -0.6349429 0.003921401
vn -0.9764707 -0.215615 0.003921427
vn -0.9764707 -0.215615 0.003921427
vn -0.9999925 0 0.003921421
vn -0.9999925 0 0.003921421
vn -0.9999925 0 0.003921421
vn -0.9999925 0 0.003921421
vn -0.9999925 0 0.003921421
vn -0.9999925 0 0.003921421
vn -0.9764706 0.2156151 0.003921478
vn -0.9764706 0.2156151 0.003921478
vn -0.7803922 0.6252782 0.003921551
vn -0.7803922 0.6252782 0.003921551
vn -0.5137255 0.8579457 0.00392161
vn -0.5137255 0.8579457 0.00392161
vn -0.4196077 0.9076971 0.003921627
vn -0.4196077 0.9076971 0.003921627
vn -0.3098041 -0.9507924 0.003921419
vn -0.1607845 -0.9869818 0.003921433
vn -0.3098041 -0.9507924 0.003921419
vn -0.1607845 -0.9869818 0.003921433
vn -0.003921689 -0.9999846 0.003921449
vn -0.003921689 -0.9999846 0.003921449
vn 0.1843136 -0.9828597 0.003921474
vn 0.1843136 -0.9828597 0.003921474
vn 0.3647057 -0.9311146 0.003921501
vn 0.3647057 -0.9311146 0.003921501
vn -0.003921659 0 0.9999925
vn -0.003921659 0 0.9999925
vn -0.003921659 0 0.9999925
vn -0.003921659 0 0.9999925
vn -0.003921659 0 0.9999925
vn -0.003921659 0 0.9999925
vn -0.003921659 0 0.9999925
vn -0.003921659 0 0.9999925
vn -0.003921659 0 0.9999925
vn -0.003921659 0 0.9999925
vn -0.003921659 0 0.9999925
vn -0.003921659 0 0.9999925
vn -0.003921659 0 0.9999925
vn -0.003921659 0 0.9999925
vn -0.003921659 0 0.9999925
vn -0.003921659 0 0.9999925
vn -0.003921659 0 0.9999925
vn -0.003921659 0 0.9999925
vn -0.003921659 0 0.9999925
vn -0.003921659 0 0.9999925
vn -0.003921659 0 0.9999925
vn -0.003921659 0 0.9999925
vn -0.003921659 0 0.9999925
vn -0.003921659 0 0.9999925
vn -0.003921659 0 0.9999925
vn -0.003921659 0 0.9999925
vn -0.003921659 0 0.9999925
vn -0.003921659 0 0.9999925
vn -0.003921659 0 0.9999925
vn -0.003921659 0 0.9999925
vn -0.003921659 0 0.9999925
vn -0.003921659 0 0.9999925
vn -0.003921659 0 0.9999925
vn -0.003921659 0 0.9999925
vn -0.003921659 0 0.9999925
vn -0.003921659 0 0.9999925
vn -0.003921659 0 0.9999925
vn -0.003921659 0 0.9999925
vn -0.003921659 0 0.9999925
vn -0.003921659 0 0.9999925
vn -0.003921659 0 0.9999925
vn -0.003921659 0 0.9999925
vn -0.003921659 0 0.9999925
vn -0.003921659 0 0.9999925
vn -0.003921659 0 0.9999925
vn -0.003921659 0 0.9999925
vn -0.003921659 0 0.9999925
vn -0.003921659 0 0.9999925
vn -0.003921659 0 0.9999925
vn -0.003921659 0 0.9999925
vn -0.003921421 0 -0.9999925
vn -0.003921421 0 -0.9999925
vn -0.003921421 0 -0.9999925
vn -0.003921421 0 -0.9999925
vn -0.003921421 0 -0.9999925
vn -0.003921421 0 -0.9999925
vn -0.003921421 0 -0.9999925
vn -0.003921421 0 -0.9999925
vn -0.003921421 0 -0.9999925
vn -0.003921421 0 -0.9999925
vn -0.003921421 0 -0.9999925
vn -0.003921421 0 -0.9999925
vn -0.003921421 0 -0.9999925
vn -0.003921421 0 -0.9999925
vn -0.003921421 0 -0.9999925
vn -0.003921421 0 -0.9999925
vn -0.003921421 0 -0.9999925
vn -0.003921421 0 -0.9999925
vn -0.003921421 0 -0.9999925
vn -0.003921421 0 -0.9999925
vn -0.003921421 0 -0.9999925
vn -0.003921421 0 -0.9999925
vn -0.003921421 0 -0.9999925
vn -0.003921421 0 -0.9999925
vn -0.003921421 0 -0.9999925
vn -0.003921421 0 -0.9999925
vn -0.003921421 0 -0.9999925
vn -0.003921421 0 -0.9999925
vn -0.003921421 0 -0.9999925
vn -0.003921421 0 -0.9999925
vn -0.003921421 0 -0.9999925
vn -0.003921421 0 -0.9999925
vn -0.003921421 0 -0.9999925
vn -0.003921421 0 -0.9999925
vn -0.003921421 0 -0.9999925
vn -0.003921421 0 -0.9999925
vn -0.003921421 0 -0.9999925
vn -0.003921421 0 -0.9999925
vn -0.003921421 0 -0.9999925
vn -0.003921421 0 -0.9999925
vn -0.003921421 0 -0.9999925
vn -0.003921421 0 -0.9999925
vn -0.003921421 0 -0.9999925
vn -0.003921421 0 -0.9999925
vn -0.003921421 0 -0.9999925
vn -0.003921421 0 -0.9999925
vn -0.003921421 0 -0.9999925
vn -0.003921421 0 -0.9999925
vn -0.003921421 0 -0.9999925
vn -0.003921421 0 -0.9999925

vt 1 0
vt 1 0
vt 1 0.06256109
vt 1 0.06256109
vt 1 0.1251222
vt 1 0.1251222
vt 1 0.2502444
vt 1 0.2502444
vt 1 0.3753666
vt 1 0.3753666
vt 1 0.5004888
vt 1 0.5004888
vt 1 0.6246334
vt 1 0.6246334
vt 1 0.7497556
vt 1 0.7497556
vt 1 0.8748778
vt 1 0.8748778
vt 1 0.9374389
vt 1 0.9374389
vt 1 1
vt 1 1
vt 0 0.2502444
vt 0.5004888 0.2502444
vt 0 0.2502444
vt 0.5004888 0.2502444
vt 1 0.2502444
vt 1 0.2502444
vt 1 0.5004888
vt 1 0.5004888
vt 1 0.7497556
vt 1 0.7497556
vt 0 0.7497556
vt 0 0.7497556
vt 0 0.6813294
vt 0 0.6813294
vt 0 0.5004888
vt 0 0.5004888
vt 0 0.3186706
vt 0 0.3186706
vt 0 0.2502444
vt 0 0.2502444
vt 0 0.7497556
vt 0 0.7497556
vt 0.5004888 0.7497556
vt 0.5004888 0.7497556
vt 1 0.7497556
vt 1 0.7497556
vt 0.5004888 0.7497556
vt 0.5004888 0.7497556
vt 0 0.7497556
vt 0 0.7497556
vt 0 1
vt 0 1
vt 0.1378299 1
vt 0.1378299 1
vt 0.5004888 1
vt 0.5004888 1
vt 0.8621701 1
vt 0.8621701 1
vt 1 1
vt 1 1
vt 0.1378299 1
vt 0 1
vt 0 1
vt 0.1378299 1
vt 0.5004888 1
vt 0.5004888 1
vt 0.8621701 1
vt 0.8621701 1
vt 1 1
vt 1 1
vt 0 1
vt 0 0.9374389
vt 0 1
vt 0 0.9374389
vt 0 0.8748778
vt 0 0.8748778
vt 0 0.7497556
vt 0 0.7497556
vt 0 0.6246334
vt 0 0.6246334
vt 0 0.5004888
vt 0 0.5004888
vt 0 0.3753666
vt 0 0.3753666
vt 0 0.2502444
vt 0 0.2502444
vt 0 0.1251222
vt 0 0.1251222
vt 0 0.06256109
vt 0 0.06256109
vt 0 0
vt 0 0
vt 1 0.7497556
vt 0.8621701 0.7497556
vt 1 0.7497556
vt 0.8621701 0.7497556
vt 0.5004888 0.7497556
vt 0.5004888 0.7497556
vt 0.1378299 0.7497556
vt 0.1378299 0.7497556
vt 0 0.7497556
vt 0 0.7497556
vt 0.8621701 0.2502444
vt 1 0.2502444
vt 1 0.1251222
vt 1 0.06256109
vt 1 0
vt 0.8621701 0
vt 0.5004888 0.2502444
vt 0.5004888 0
vt 0.1378299 0
vt 0.1378299 0.2502444
vt 0 0
vt 0 0.06256109
vt 0 0.1251222
vt 0 0.2502444
vt 1 0.2502444
vt 1 0.3753666
vt 0.8621701 0.2502444
vt 1 0.3753666
vt 0.5004888 0.2502444
vt 0.1378299 0.2502444
vt 1 0.5004888
vt 1 0.5004888
vt 1 0.6246334
vt 1 0.6246334
vt 0 0.2502444
vt 0 0.3753666
vt 0 0.3753666
vt 1 0.7497556
vt 0 0.5004888
vt 0 0.5004888
vt 0 0.6246334
vt 0 0.6246334
vt 0 0.7497556
vt 1 0.7497556
vt 0.8621701 0.9374389
vt 1 0.8748778
vt 1 0.9374389
vt 1 1
vt 0 0.7497556
vt 0.1378299 0.9374389
vt 0 0.8748778
vt 0 0.9374389
vt 0 1
vt 0.8621701 0.7497556
vt 0.5004888 0.9374389
vt 0.8621701 1
vt 0.5004888 0.7497556
vt 0.5004888 1
vt 0.1378299 0.7497556
vt 0.1378299 1
vt 0.5004888 0.2502444
vt 0.5004888 0.2502444
vt 0.1378299 0.2502444
vt 0.1378299 0.2502444
vt 0.8621701 0.2502444
vt 0.8621701 0.2502444
vt 0 0.2502444
vt 1 0.2502444
vt 0 0.2502444
vt 0 0.3753666
vt 0 0.3753666
vt 0 0.1251222
vt 0 0.5004888
vt 0 0.5004888
vt 0 0.6246334
vt 0 0.6246334
vt 0 0.06256109
vt 0 0
vt 0.1378299 0
vt 0 0.7497556
vt 0.5004888 0
vt 0.8621701 0
vt 1 0
vt 1 0.06256109
vt 1 0.1251222
vt 1 0.2502444
vt 1 0.3753666
vt 1 0.3753666
vt 1 0.5004888
vt 1 0.5004888
vt 1 0.6246334
vt 1 0.6246334
vt 1 0.7497556
vt 1 0.7497556
vt 0.8621701 0.9374389
vt 1 0.8748778
vt 1 0.9374389
vt 1 1
vt 0.8621701 0.7497556
vt 0.5004888 0.9374389
vt 0.8621701 1
vt 0.5004888 0.7497556
vt 0.5004888 1
vt 0.1378299 0.7497556
vt 0.1378299 0.9374389
vt 0.1378299 1
vt 0 1
vt 0 0.9374389
vt 0 0.8748778
vt 0 0.7497556

usemtl Prop_SC_Table
usemap Prop_SC_Table
f 2/2/2 1/1/1 3/3/3
f 4/4/4 2/2/2 3/3/3
f 5/5/5 4/4/4 3/3/3
f 6/6/6 5/5/5 3/3/3
f 6/6/6 7/7/7 5/5/5
f 7/7/7 8/8/8 5/5/5
f 9/9/9 8/8/8 7/7/7
f 10/10/10 9/9/9 7/7/7
f 10/10/10 11/11/11 9/9/9
f 11/11/11 12/12/12 9/9/9
f 13/13/13 12/12/12 11/11/11
f 14/14/14 13/13/13 11/11/11
f 15/15/15 13/13/13 14/14/14
f 16/16/16 15/15/15 14/14/14
f 16/16/16 17/17/17 15/15/15
f 17/17/17 18/18/18 15/15/15
f 19/19/19 18/18/18 17/17/17
f 20/20/20 19/19/19 17/17/17
f 21/21/21 19/19/19 20/20/20
f 22/22/22 21/21/21 20/20/20
f 24/24/24 23/23/23 25/25/25
f 26/26/26 24/24/24 25/25/25
f 24/24/24 26/26/26 27/27/27
f 28/28/28 24/24/24 27/27/27
f 28/28/28 27/27/27 29/29/29
f 30/30/30 28/28/28 29/29/29
f 31/31/31 30/30/30 29/29/29
f 32/32/32 31/31/31 29/29/29
f 34/34/34 33/33/33 35/35/35
f 36/36/36 34/34/34 35/35/35
f 35/35/35 37/37/37 36/36/36
f 37/37/37 38/38/38 36/36/36
f 39/39/39 38/38/38 37/37/37
f 40/40/40 39/39/39 37/37/37
f 41/41/41 39/39/39 40/40/40
f 42/42/42 41/41/41 40/40/40
f 44/44/44 43/43/43 45/45/45
f 43/43/43 46/46/46 45/45/45
f 45/45/45 46/46/46 47/47/47
f 46/46/46 48/48/48 47/47/47
f 47/47/47 48/48/48 49/49/49
f 48/48/48 50/50/50 49/49/49
f 49/49/49 50/50/50 51/51/51
f 50/50/50 52/52/52 51/51/51
f 54/54/54 53/53/53 55/55/55
f 53/53/53 56/56/56 55/55/55
f 55/55/55 56/56/56 57/57/57
f 58/58/58 55/55/55 57/57/57
f 57/57/57 59/59/59 58/58/58
f 59/59/59 60/60/60 58/58/58
f 60/60/60 59/59/59 61/61/61
f 59/59/59 62/62/62 61/61/61
f 64/64/64 63/63/63 65/65/65
f 63/63/63 66/66/66 65/65/65
f 66/66/66 63/63/63 67/67/67
f 63/63/63 68/68/68 67/67/67
f 68/68/68 69/69/69 67/67/67
f 69/69/69 70/70/70 67/67/67
f 70/70/70 69/69/69 71/71/71
f 69/69/69 72/72/72 71/71/71
f 74/74/74 73/73/73 75/75/75
f 76/76/76 74/74/74 75/75/75
f 77/77/77 74/74/74 76/76/76
f 78/78/78 77/77/77 76/76/76
f 79/79/79 77/77/77 78/78/78
f 80/80/80 79/79/79 78/78/78
f 81/81/81 79/79/79 80/80/80
f 82/82/82 81/81/81 80/80/80
f 83/83/83 81/81/81 82/82/82
f 84/84/84 83/83/83 82/82/82
f 83/83/83 84/84/84 85/85/85
f 86/86/86 83/83/83 85/85/85
f 86/86/86 85/85/85 87/87/87
f 88/88/88 86/86/86 87/87/87
f 88/88/88 87/87/87 89/89/89
f 90/90/90 88/88/88 89/89/89
f 90/90/90 89/89/89 91/91/91
f 92/92/92 90/90/90 91/91/91
f 91/91/91 93/93/93 92/92/92
f 93/93/93 94/94/94 92/92/92
f 96/96/96 95/95/95 97/97/97
f 98/98/98 96/96/96 97/97/97
f 96/96/96 98/98/98 99/99/99
f 100/100/100 96/96/96 99/99/99
f 101/101/101 100/100/100 99/99/99
f 102/102/102 101/101/101 99/99/99
f 103/103/103 101/101/101 102/102/102
f 104/104/104 103/103/103 102/102/102
f 106/106/106 105/105/105 107/107/107
f 107/107/107 105/105/105 108/108/108
f 108/108/108 105/105/105 109/109/109
f 105/105/105 110/110/110 109/109/109
f 105/105/105 111/111/111 110/110/110
f 111/111/111 112/112/112 110/110/110
f 112/112/112 111/111/111 113/113/113
f 111/111/111 114/114/114 113/113/113
f 113/113/113 114/114/114 115/115/115
f 114/114/114 116/116/116 115/115/115
f 117/117/117 116/116/116 114/114/114
f 118/118/118 117/117/117 114/114/114
f 106/106/106 119/119/119 105/105/105
f 119/119/119 106/106/106 120/120/120
f 119/119/119 121/121/121 105/105/105
f 105/105/105 121/121/121 111/111/111
f 122/122/122 119/119/119 120/120/120
f 121/121/121 123/123/123 111/111/111
f 123/123/123 124/124/124 111/111/111
f 124/124/124 114/114/114 111/111/111
f 122/122/122 120/120/120 125/125/125
f 126/126/126 122/122/122 125/125/125
f 127/127/127 126/126/126 125/125/125
f 128/128/128 127/127/127 125/125/125
f 124/124/124 129/129/129 114/114/114
f 129/129/129 118/118/118 114/114/114
f 118/118/118 129/129/129 130/130/130
f 129/129/129 131/131/131 130/130/130
f 132/132/132 127/127/127 128/128/128
f 130/130/130 131/131/131 133/133/133
f 131/131/131 134/134/134 133/133/133
f 134/134/134 135/135/135 133/133/133
f 135/135/135 136/136/136 133/133/133
f 135/135/135 137/137/137 136/136/136
f 138/138/138 132/132/132 128/128/128
f 132/132/132 138/138/138 139/139/139
f 140/140/140 139/139/139 138/138/138
f 141/141/141 139/139/139 140/140/140
f 139/139/139 141/141/141 142/142/142
f 137/137/137 143/143/143 136/136/136
f 143/143/143 137/137/137 144/144/144
f 145/145/145 143/143/143 144/144/144
f 146/146/146 145/145/145 144/144/144
f 146/146/146 144/144/144 147/147/147
f 148/148/148 132/132/132 139/139/139
f 148/148/148 139/139/139 149/149/149
f 150/150/150 139/139/139 142/142/142
f 149/149/149 139/139/139 150/150/150
f 151/151/151 148/148/148 149/149/149
f 152/152/152 149/149/149 150/150/150
f 137/137/137 153/153/153 144/144/144
f 153/153/153 151/151/151 149/149/149
f 144/144/144 153/153/153 149/149/149
f 144/144/144 154/154/154 147/147/147
f 149/149/149 152/152/152 154/154/154
f 144/144/144 149/149/149 154/154/154
f 156/156/156 155/155/155 157/157/157
f 155/155/155 158/158/158 157/157/157
f 156/156/156 159/159/159 155/155/155
f 159/159/159 160/160/160 155/155/155
f 157/157/157 158/158/158 161/161/161
f 159/159/159 162/162/162 160/160/160
f 158/158/158 163/163/163 161/161/161
f 161/161/161 163/163/163 164/164/164
f 165/165/165 161/161/161 164/164/164
f 166/166/166 163/163/163 158/158/158
f 165/165/165 164/164/164 167/167/167
f 168/168/168 165/165/165 167/167/167
f 168/168/168 167/167/167 169/169/169
f 167/167/167 170/170/170 169/169/169
f 171/171/171 166/166/166 158/158/158
f 171/171/171 158/158/158 172/172/172
f 158/158/158 173/173/173 172/172/172
f 169/169/169 170/170/170 174/174/174
f 158/158/158 155/155/155 173/173/173
f 155/155/155 175/175/175 173/173/173
f 176/176/176 175/175/175 155/155/155
f 160/160/160 176/176/176 155/155/155
f 177/177/177 176/176/176 160/160/160
f 178/178/178 177/177/177 160/160/160
f 160/160/160 179/179/179 178/178/178
f 160/160/160 180/180/180 179/179/179
f 162/162/162 180/180/180 160/160/160
f 181/181/181 180/180/180 162/162/162
f 182/182/182 181/181/181 162/162/162
f 183/183/183 181/181/181 182/182/182
f 184/184/184 183/183/183 182/182/182
f 184/184/184 185/185/185 183/183/183
f 185/185/185 186/186/186 183/183/183
f 185/185/185 187/187/187 186/186/186
f 187/187/187 188/188/188 186/186/186
f 189/189/189 188/188/188 187/187/187
f 189/189/189 190/190/190 188/188/188
f 189/189/189 191/191/191 190/190/190
f 192/192/192 191/191/191 189/189/189
f 193/193/193 189/189/189 187/187/187
f 194/194/194 189/189/189 193/193/193
f 195/195/195 192/192/192 189/189/189
f 189/189/189 194/194/194 195/195/195
f 196/196/196 194/194/194 193/193/193
f 194/194/194 197/197/197 195/195/195
f 196/196/196 198/198/198 194/194/194
f 198/198/198 199/199/199 194/194/194
f 200/200/200 197/197/197 194/194/194
f 199/199/199 200/200/200 194/194/194
f 201/201/201 200/200/200 199/199/199
f 202/202/202 201/201/201 199/199/199
f 203/203/203 202/202/202 199/199/199
f 198/198/198 174/174/174 199/199/199
f 204/204/204 203/203/203 199/199/199
f 174/174/174 204/204/204 199/199/199
f 170/170/170 204/204/204 174/174/174
